<svg xmlns="http://www.w3.org/2000/svg" id="Layer_2" data-name="Layer 2" viewBox="0 0 517.19 409.49"><defs><style>      .cls-1 {        fill: #fff;      }      .cls-2 {        fill: #4a494a;      }      .cls-3 {        fill: #555655;        opacity: 0;      }    </style></defs><g id="Layer_1-2" data-name="Layer 1"><g><path class="cls-1" d="M319.79,328.74v38.7h-5.87v-26.52c0-.43.01-.9.04-1.41.03-.51.07-1.03.13-1.55l-13.19,22.98c-.51.95-1.3,1.42-2.36,1.42h-.94c-1.08,0-1.87-.47-2.36-1.42l-13.39-23.03c.06.52.1,1.04.13,1.56.03.52.04,1,.04,1.45v26.52h-5.87v-38.7h4.98c.59,0,1.04.05,1.37.15s.62.4.88.9l13.16,22.49c.29.52.56,1.05.81,1.6.26.55.49,1.11.7,1.68.23-.57.47-1.14.73-1.71.26-.56.53-1.11.81-1.62l12.96-22.44c.27-.5.56-.8.88-.9s.78-.15,1.37-.15h4.99Z"></path><path class="cls-1" d="M355.14,362.36l-.03,5.08h-25.58v-38.7h25.58v5.08h-18.89v11.66h15.1v4.92h-15.1v11.96h18.91Z"></path><path class="cls-1" d="M398.35,348.09c0,2.87-.49,5.49-1.48,7.86s-2.38,4.41-4.17,6.11c-1.79,1.7-3.95,3.02-6.47,3.96-2.52.94-5.31,1.41-8.39,1.41h-15.5v-38.7h15.5c3.08,0,5.87.47,8.39,1.41,2.52.94,4.67,2.26,6.47,3.96,1.79,1.7,3.19,3.74,4.17,6.11s1.48,4.99,1.48,7.86ZM391.54,348.09c0-2.22-.32-4.22-.95-5.99-.64-1.77-1.55-3.27-2.73-4.49-1.19-1.22-2.62-2.15-4.32-2.81s-3.59-.98-5.7-.98h-8.8v28.54h8.8c2.11,0,4.01-.32,5.7-.97,1.69-.64,3.13-1.58,4.32-2.81,1.19-1.23,2.1-2.72,2.73-4.49.64-1.76.95-3.77.95-6.01Z"></path><path class="cls-1" d="M441.31,335.35c-.21.32-.43.56-.66.71-.23.15-.51.23-.85.23-.36,0-.76-.14-1.21-.43s-1-.6-1.65-.95-1.43-.67-2.32-.97c-.89-.29-1.96-.44-3.19-.44-1.14,0-2.14.13-3,.4s-1.59.64-2.18,1.13c-.59.48-1.03,1.05-1.33,1.71-.29.65-.44,1.37-.44,2.14,0,.99.28,1.8.83,2.46s1.28,1.21,2.18,1.68c.9.47,1.93.87,3.09,1.22s2.34.72,3.55,1.12c1.21.39,2.39.84,3.55,1.34s2.19,1.14,3.09,1.91c.9.77,1.63,1.71,2.18,2.82.55,1.11.83,2.46.83,4.06,0,1.72-.31,3.33-.94,4.84-.63,1.5-1.53,2.82-2.72,3.94-1.19,1.12-2.65,2-4.39,2.65-1.74.64-3.72.97-5.94.97-1.31,0-2.59-.12-3.83-.36-1.24-.24-2.43-.58-3.56-1.02-1.13-.44-2.19-.97-3.18-1.6s-1.87-1.33-2.65-2.1l1.94-3.01c.17-.25.39-.45.66-.59.27-.14.56-.21.88-.21.44,0,.92.19,1.45.58.53.39,1.17.81,1.92,1.26s1.66.88,2.72,1.26c1.06.39,2.34.58,3.82.58,2.41,0,4.28-.56,5.6-1.67,1.32-1.11,1.98-2.64,1.98-4.6,0-1.09-.28-1.98-.83-2.67s-1.28-1.27-2.18-1.73c-.9-.47-1.93-.86-3.09-1.18s-2.34-.67-3.53-1.03-2.37-.8-3.53-1.29-2.19-1.14-3.09-1.94c-.9-.8-1.63-1.78-2.18-2.96-.55-1.17-.83-2.64-.83-4.39,0-1.4.29-2.75.87-4.06s1.42-2.47,2.54-3.48c1.11-1.01,2.48-1.82,4.12-2.43,1.63-.61,3.49-.91,5.58-.91,2.35,0,4.51.35,6.48,1.05,1.96.7,3.66,1.69,5.08,2.98l-1.62,3.01Z"></path><path class="cls-1" d="M463.69,328.74c2.68,0,5,.3,6.96.89,1.97.59,3.59,1.42,4.87,2.49,1.28,1.07,2.24,2.35,2.86,3.84.63,1.5.94,3.15.94,4.96s-.33,3.53-1,5.07c-.67,1.53-1.65,2.85-2.96,3.95-1.31,1.1-2.94,1.96-4.88,2.58-1.95.62-4.21.93-6.79.93h-6.1v14h-6.67v-38.7h12.76ZM463.69,348.46c1.48,0,2.79-.18,3.92-.54s2.07-.86,2.82-1.52c.75-.65,1.31-1.45,1.69-2.38.38-.93.57-1.97.57-3.12s-.19-2.14-.56-3.04-.93-1.66-1.67-2.28c-.74-.63-1.68-1.11-2.81-1.44-1.13-.33-2.45-.5-3.97-.5h-6.1v14.81h6.1Z"></path><path class="cls-1" d="M517.19,367.44h-5.16c-.59,0-1.06-.14-1.42-.42-.36-.28-.64-.62-.83-1.03l-3.42-8.55h-17.66l-3.42,8.55c-.15.36-.42.69-.8.99-.38.3-.85.46-1.42.46h-5.16l16.27-38.7h6.75l16.26,38.7ZM504.57,352.92l-5.64-14.14c-.46-1.09-.92-2.48-1.4-4.17-.21.84-.44,1.62-.68,2.32-.25.71-.48,1.33-.68,1.87l-5.64,14.11h14.04Z"></path></g><g><path class="cls-1" d="M95.21,155.38h-12.79v33.46h-6.64v-33.46h-12.82v-5.24h32.25v5.24Z"></path><path class="cls-1" d="M134.86,150.14v38.7h-6.67v-17.23h-20.59v17.23h-6.69v-38.7h6.69v16.93h20.59v-16.93h6.67Z"></path><path class="cls-1" d="M170.24,183.76l-.03,5.08h-25.58v-38.7h25.58v5.08h-18.89v11.66h15.1v4.92h-15.1v11.96h18.91Z"></path></g><path class="cls-2" d="M113.7,387.82l18.9,16.68,2.78-3.34,9.67,8.34,8.34-9.67-10.89-9.34,37.35-43.13,31.46,27.01,14.67-17.23-22.79-19.57,129.62-150.75s9.34-9.67,2.78-22.23l18.23-21.23-5.67-4.56,87.38-101.94-5-.56-85.82,99.39-5.67-4.67-17.56,20.23s-12.56-4.67-22.12,6.56c-9.56,11.23-129.29,150.19-129.29,150.19l-22.79-19.34-14.67,17.01,30.91,27.46-37.13,43.02-11.01-9.12-8.34,9.56,9.78,7.89-3.11,3.34Z"></path><polygon class="cls-3" points="344.71 135.68 348.15 138.8 435.53 36.85 430.53 36.3 344.71 135.68"></polygon><path class="cls-1" d="M421.19,232.07c-1.56-4.78-8.12,2-8.12,2,0,0-5.67,5.11-15.9,14.45-10.23,9.34-23.46,16.79-33.8,19.57-10.34,2.78-17.01,2.78-27.01.33-10.01-2.45-12.67-7.11-12.12-16.45.56-9.34,7.45-7.34,7.45-7.34,7.45,1.78,19.45,1.22,19.45,1.22,23.01-1.45,31.79-17.56,31.79-17.56,10.78-19.57-8.34-22.9-8.34-22.9,0,0-15.79-3.78-35.02,5.22-19.23,9-27.9,20.68-32.91,34.91-5,14.23,1.45,23.12,1.45,23.12-2,4.56-9.67,13.23-9.67,13.23-10.67,11.45-20.34,1-20.34,1,0,0-5.56-6-11.34-15.12-5.78-9.12.22-14.23.22-14.23,0,0,12.9-15.79,19.34-24.79,6.45-9,5.56-13.67,5.56-13.67,0,0-1.22-6.23-9.56-1.56-8.34,4.67-11.9,10.78-11.9,10.78l-10.45,14.01c-5.45,3.89-6.56-1.22-6.56-1.22,0,0-4.34-12.34-6-16.68-1.67-4.34-5.67-8.34-12.23-6.67-6.56,1.67-4.56,8-4.56,9.23s7.34,24.68,7.34,24.68c-2.56-1.56-5.67,2-5.67,2-8,6.23-35.46,25.01-41.8,25.9-6.34.89-3.67-7.45-3.67-7.45,0,0,9.56-30.68,10.34-33.91.78-3.22,0-6.56-5.78-7.45-5.78-.89-10.78,5-10.78,5l-11.9,13.78c-19.12,20.9-37.58,35.91-37.58,35.91-10.67,5.45-5.45-7.67-5.45-7.67l16.79-44.69s5.11-1.56,2.67-4-7.23-2-7.23-2c-6.78-1.67-6.89.89-6.89.89-25.57,5.56-45.02,23.46-64.26,42.8-19.23,19.34-48.8,66.7-48.8,66.7l-2-.56,1.89-38.13,1.89-67.37s.33-66.81.44-75.48c.11-8.67-1.45-54.03-1.45-54.03L14.65,31.41s-1.45-21.57-2.89-26.9C10.31-.83,5.64.06,5.64.06.53.61.19,4.06.01,4.95c-.18.89,2.07,31.79,2.29,36.02.22,4.22,3,53.36,3.11,59.81.11,6.45,1.22,51.14,1.22,60.03s0,52.47-.44,63.14c-.44,10.67-1.11,51.36-1.56,67.7s-3.22,51.58-3.22,51.58c0,0-1.78,14.01-1.33,16.01s2.89,5,7.45,5,7.11-1.67,10.56-7.11c3.45-5.45,11.56-16.79,17.45-28.01,5.89-11.23,32.57-48.47,52.58-68.04,20.01-19.57,37.58-26.9,37.58-26.9l-7.67,16.9s-16.9,36.24-3.34,42.91c13.56,6.67,29.02-6,29.02-6l24.79-21.34c.33,10.01,3.78,14.56,3.78,14.56,8.34,13.56,24.9,4.45,33.13-.11,8.23-4.56,29.57-22.12,32.13-24.35,2.56-2.22,2.45-2.56,2.45-2.56.67,4.56.22,6.78-1.67,9.56-1.89,2.78-10.67,12.56-17.56,18.9-6.89,6.34-5.56,8.78-5.56,8.78,3.11,4.67,8,2.56,12.23,1.78,4.22-.78,17.68-14.45,17.68-14.45,5.22-6.11,7.56.22,7.56.22,0,0,.78.56,8.23,11.12s15.9,11.9,22.46,11.34c6.56-.56,14.9-6.67,20.34-13.45,5.45-6.78,9.56-13.9,9.56-13.9,7.23,5.11,17.45,6.67,17.45,6.67,22.35,4.11,38.91-2.56,38.91-2.56,33.68-11.12,47.36-32.8,47.36-32.8,0,0,5.78-8.56,4.22-13.34ZM348.49,220.28c13.56-6.45,16.79-3,16.79-3,3.56,5.89-1.78,11.56-1.78,11.56-6.89,7.56-18.23,6.34-18.23,6.34,0,0-8.89-1.11-8.34-5,.56-3.89,11.56-9.89,11.56-9.89Z"></path></g></svg>