<svg xmlns="http://www.w3.org/2000/svg" xmlns:xlink="http://www.w3.org/1999/xlink" id="Layer_2" data-name="Layer 2" viewBox="0 0 391.57 60.25"><defs><style>      .cls-1 {        fill: none;      }      .cls-1, .cls-2 {        stroke: url(#linear-gradient-2);      }      .cls-1, .cls-2, .cls-3 {        stroke-miterlimit: 10;        stroke-width: .25px;      }      .cls-4 {        fill: #c2aa6f;      }      .cls-2, .cls-5 {        fill: url(#linear-gradient);      }      .cls-3 {        fill: url(#linear-gradient-3);        stroke: url(#linear-gradient-4);      }      .cls-6 {        clip-path: url(#clippath);      }    </style><linearGradient id="linear-gradient" x1=".12" y1="30.12" x2="63.07" y2="30.12" gradientUnits="userSpaceOnUse"><stop offset=".03" stop-color="#f8f5ef" stop-opacity=".8"></stop><stop offset=".16" stop-color="#c2aa6f" stop-opacity=".8"></stop><stop offset=".22" stop-color="#c2aa6f" stop-opacity=".8"></stop><stop offset=".28" stop-color="#bea76c" stop-opacity=".8"></stop><stop offset=".32" stop-color="#b49d65" stop-opacity=".8"></stop><stop offset=".35" stop-color="#a38d59" stop-opacity=".8"></stop><stop offset=".38" stop-color="#8a7647" stop-opacity=".8"></stop><stop offset=".4" stop-color="#6a5931" stop-opacity=".8"></stop><stop offset=".42" stop-color="#443516" stop-opacity=".8"></stop><stop offset=".48" stop-color="#382b0c" stop-opacity=".8"></stop><stop offset=".53" stop-color="#2b1f00" stop-opacity=".8"></stop><stop offset=".55" stop-color="#3c362e" stop-opacity=".8"></stop><stop offset=".56" stop-color="#c2aa6f" stop-opacity=".8"></stop><stop offset=".63" stop-color="#c2aa6f" stop-opacity=".8"></stop><stop offset=".72" stop-color="#fff" stop-opacity=".8"></stop><stop offset=".78" stop-color="#fcfcfa" stop-opacity=".81"></stop><stop offset=".83" stop-color="#f6f3ea" stop-opacity=".83"></stop><stop offset=".88" stop-color="#ebe3d0" stop-opacity=".86"></stop><stop offset=".92" stop-color="#dbceac" stop-opacity=".92"></stop><stop offset=".96" stop-color="#c8b27d" stop-opacity=".98"></stop><stop offset=".97" stop-color="#c2aa6f"></stop></linearGradient><linearGradient id="linear-gradient-2" x1="9.76" y1="52.01" x2="53.38" y2="8.39" gradientUnits="userSpaceOnUse"><stop offset=".11" stop-color="#c2aa6f" stop-opacity=".8"></stop><stop offset=".22" stop-color="#93752c" stop-opacity=".8"></stop><stop offset=".31" stop-color="#95772f" stop-opacity=".8"></stop><stop offset=".36" stop-color="#9c7f39" stop-opacity=".8"></stop><stop offset=".4" stop-color="#a88d4a" stop-opacity=".8"></stop><stop offset=".43" stop-color="#b9a063" stop-opacity=".8"></stop><stop offset=".45" stop-color="#c2aa6f" stop-opacity=".8"></stop><stop offset=".59" stop-color="#fff" stop-opacity=".8"></stop><stop offset=".69" stop-color="#fcfcfa" stop-opacity=".81"></stop><stop offset=".76" stop-color="#f6f3ea" stop-opacity=".83"></stop><stop offset=".83" stop-color="#ebe3d0" stop-opacity=".86"></stop><stop offset=".89" stop-color="#dbceac" stop-opacity=".92"></stop><stop offset=".95" stop-color="#c8b27d" stop-opacity=".98"></stop><stop offset=".97" stop-color="#c2aa6f"></stop></linearGradient><clipPath id="clippath"><path class="cls-2" d="M29.84.17c24.23-1.21,41.57,23.64,29.07,44.8-11.94,20.21-42.72,20.21-54.65,0C-7.43,25.2,7.12,1.31,29.84.17ZM31.27,53.6c-.66.6-2.55,2.53-3.43,2.48-1.46-.08-.24-2,.13-2.62.86-1.42,2.01-2.74,2.92-4.16,8.76-13.76,7.57-32.63,3.95-47.83-.02-.11-.1-.12-.2-.14-.29-.05-.97-.01-1.29,0-7.99.34-15.05,5.22-19.26,11.64-6.51,9.92-6.88,23.89-.86,34.11,5.37,9.13,18.27,14.5,28.53,10.5,6.5-2.53,14.05-9.39,16-16.1,1.89-6.51-2.62-6.78-7.29-4.27-6.89,3.71-13.43,11.12-19.2,16.39ZM47.83,37.88c4.19-3.87,7.85-7.57,8.75-13.44.93-6.07-1.92-13.16-6.68-17.1-4.07-3.37-9.37-5.3-14.62-6,.24,1.58.69,3.14,1.01,4.72,2.68,13.2,2.43,27.5-2.67,40.1-.45,1.11-1.2,2.39-1.54,3.48-.08.25-.26.7-.09.93.29.4,1.75-.75,2.03-.97,3.06-2.32,6.26-5.14,9.19-7.65,1.55-1.33,3.11-2.68,4.61-4.07Z"></path></clipPath><linearGradient id="linear-gradient-3" x1="34.15" y1="61.93" x2="34.15" y2=".12" xlink:href="#linear-gradient"></linearGradient><linearGradient id="linear-gradient-4" x1="-5.5" y1="70.67" x2="73.79" y2="-8.62" xlink:href="#linear-gradient-2"></linearGradient></defs><g id="Layer_1-2" data-name="Layer 1"><g><path class="cls-5" d="M29.84.17c24.23-1.21,41.57,23.64,29.07,44.8-11.94,20.21-42.72,20.21-54.65,0C-7.43,25.2,7.12,1.31,29.84.17ZM31.27,53.6c-.66.6-2.55,2.53-3.43,2.48-1.46-.08-.24-2,.13-2.62.86-1.42,2.01-2.74,2.92-4.16,8.76-13.76,7.57-32.63,3.95-47.83-.02-.11-.1-.12-.2-.14-.29-.05-.97-.01-1.29,0-7.99.34-15.05,5.22-19.26,11.64-6.51,9.92-6.88,23.89-.86,34.11,5.37,9.13,18.27,14.5,28.53,10.5,6.5-2.53,14.05-9.39,16-16.1,1.89-6.51-2.62-6.78-7.29-4.27-6.89,3.71-13.43,11.12-19.2,16.39ZM47.83,37.88c4.19-3.87,7.85-7.57,8.75-13.44.93-6.07-1.92-13.16-6.68-17.1-4.07-3.37-9.37-5.3-14.62-6,.24,1.58.69,3.14,1.01,4.72,2.68,13.2,2.43,27.5-2.67,40.1-.45,1.11-1.2,2.39-1.54,3.48-.08.25-.26.7-.09.93.29.4,1.75-.75,2.03-.97,3.06-2.32,6.26-5.14,9.19-7.65,1.55-1.33,3.11-2.68,4.61-4.07Z"></path><g class="cls-6"><rect class="cls-3" x="-13.99" y=".12" width="96.27" height="61.81"></rect></g><path class="cls-1" d="M29.84.17c24.23-1.21,41.57,23.64,29.07,44.8-11.94,20.21-42.72,20.21-54.65,0C-7.43,25.2,7.12,1.31,29.84.17ZM31.27,53.6c-.66.6-2.55,2.53-3.43,2.48-1.46-.08-.24-2,.13-2.62.86-1.42,2.01-2.74,2.92-4.16,8.76-13.76,7.57-32.63,3.95-47.83-.02-.11-.1-.12-.2-.14-.29-.05-.97-.01-1.29,0-7.99.34-15.05,5.22-19.26,11.64-6.51,9.92-6.88,23.89-.86,34.11,5.37,9.13,18.27,14.5,28.53,10.5,6.5-2.53,14.05-9.39,16-16.1,1.89-6.51-2.62-6.78-7.29-4.27-6.89,3.71-13.43,11.12-19.2,16.39ZM47.83,37.88c4.19-3.87,7.85-7.57,8.75-13.44.93-6.07-1.92-13.16-6.68-17.1-4.07-3.37-9.37-5.3-14.62-6,.24,1.58.69,3.14,1.01,4.72,2.68,13.2,2.43,27.5-2.67,40.1-.45,1.11-1.2,2.39-1.54,3.48-.08.25-.26.7-.09.93.29.4,1.75-.75,2.03-.97,3.06-2.32,6.26-5.14,9.19-7.65,1.55-1.33,3.11-2.68,4.61-4.07Z"></path></g><rect class="cls-4" x="238.73" y="18.22" width="8.27" height=".8"></rect><polygon class="cls-4" points="106.48 22.97 101.18 12.1 100.04 12.1 100.04 25.38 100.92 25.38 100.92 13.59 106.09 24.06 106.87 24.06 112.04 13.59 112.04 25.38 112.92 25.38 112.92 12.1 111.78 12.1 106.48 22.97"></polygon><path class="cls-4" d="M364.25,11.97l-5.46,13.35h.93l1.4-3.4h7.32l1.38,3.4h.93l-5.44-13.35h-1.07ZM361.42,21.13l3.37-8.17,3.35,8.17h-6.71Z"></path><polygon class="cls-4" points="134.38 24.06 125.17 12.1 124.17 12.1 124.17 25.38 125.05 25.38 125.05 13.4 134.26 25.38 135.27 25.38 135.27 12.1 134.38 12.1 134.38 24.06"></polygon><polygon class="cls-4" points="391.21 24.51 383.46 24.51 383.46 11.97 382.57 11.97 382.57 25.32 391.21 25.32 391.21 24.51"></polygon><polygon class="cls-4" points="167.71 12.1 162.93 24.37 158.15 12.1 157.23 12.1 162.42 25.38 163.44 25.38 168.63 12.1 167.71 12.1"></polygon><rect class="cls-4" x="178.44" y="12.08" width="8.27" height=".8"></rect><path class="cls-4" d="M227.85,21.69c.29-.77.43-1.6.43-2.48v-.26h-5.77v.78h4.83c-.04.64-.18,1.26-.41,1.86-.23.6-.56,1.14-.99,1.6-.43.47-.95.84-1.57,1.13-.62.29-1.33.43-2.13.43s-1.52-.15-2.19-.45c-.67-.3-1.26-.72-1.75-1.25-.49-.53-.88-1.17-1.16-1.91-.28-.74-.42-1.54-.42-2.41s.14-1.67.41-2.4c.27-.73.65-1.37,1.14-1.9.49-.53,1.07-.95,1.73-1.26s1.39-.46,2.16-.46c.95,0,1.82.22,2.62.66.8.44,1.5,1.1,2.1,1.98l.66-.54c-.61-.92-1.38-1.64-2.29-2.14-.91-.51-1.94-.76-3.07-.76-.91,0-1.75.17-2.53.52-.78.35-1.46.83-2.02,1.44-.57.61-1.01,1.34-1.33,2.17-.32.83-.48,1.74-.48,2.71s.16,1.88.49,2.7c.33.83.78,1.55,1.35,2.16.57.61,1.25,1.1,2.03,1.44.78.35,1.63.52,2.53.52s1.76-.17,2.5-.5c.75-.33,1.39-.79,1.91-1.36.53-.57.93-1.25,1.22-2.02Z"></path><rect class="cls-4" x="146.54" y="12.1" width=".88" height="13.28"></rect><rect class="cls-4" x="178.44" y="24.58" width="8.27" height=".8"></rect><path class="cls-4" d="M345.46,18.28c.26-.11.49-.24.68-.4.28-.23.51-.49.67-.77.17-.27.29-.56.35-.86s.1-.57.1-.83c0-.6-.1-1.12-.29-1.56-.19-.44-.46-.8-.8-1.08-.34-.28-.73-.49-1.19-.62-.46-.13-.95-.2-1.47-.2h-5.07v13.35h5.26c.75,0,1.39-.09,1.92-.28.53-.19.96-.45,1.3-.79.33-.34.58-.72.73-1.17.15-.44.23-.91.23-1.41,0-.93-.24-1.69-.72-2.31-.42-.53-1-.89-1.71-1.09ZM339.34,12.75h4.21c.48,0,.9.07,1.26.21s.65.33.89.57.41.53.51.86c.11.33.16.68.16,1.06,0,.4-.08.77-.23,1.1-.16.33-.37.6-.63.83-.27.22-.58.39-.94.51-.36.12-.73.18-1.14.18h-4.09v-5.32ZM346.78,22.95c-.15.36-.37.65-.64.89-.28.23-.6.41-.97.52-.37.11-.77.17-1.2.17h-4.63v-5.72h4.63c.52,0,.98.07,1.36.22.38.15.7.35.95.61s.43.57.55.92c.12.35.18.73.18,1.13,0,.48-.08.9-.23,1.26Z"></path><path class="cls-4" d="M324,13.7c-.57-.6-1.25-1.08-2.03-1.42s-1.65-.51-2.59-.51-1.81.17-2.6.51c-.79.34-1.48.82-2.05,1.42-.58.6-1.02,1.33-1.34,2.17s-.47,1.76-.47,2.77.16,1.93.47,2.78.76,1.57,1.34,2.17c.58.6,1.26,1.08,2.05,1.42.79.34,1.66.51,2.6.51s1.8-.17,2.59-.51,1.46-.82,2.03-1.42c.57-.6,1.01-1.33,1.33-2.17s.47-1.77.47-2.78-.16-1.93-.47-2.77-.76-1.56-1.33-2.17ZM324.49,21.08c-.28.75-.65,1.38-1.14,1.91s-1.06.95-1.74,1.25c-.68.3-1.42.45-2.23.45s-1.55-.15-2.23-.45c-.68-.3-1.27-.72-1.76-1.25-.5-.53-.88-1.17-1.16-1.91s-.41-1.56-.41-2.45.14-1.7.41-2.44.66-1.37,1.16-1.9c.5-.53,1.08-.95,1.76-1.25s1.42-.45,2.23-.45,1.55.15,2.23.45c.68.3,1.26.72,1.74,1.25s.86,1.16,1.14,1.9.41,1.55.41,2.44-.14,1.7-.41,2.45Z"></path><polygon class="cls-4" points="294.69 11.97 293.81 11.97 293.81 25.32 302.45 25.32 302.45 24.51 294.69 24.51 294.69 11.97"></polygon><rect class="cls-4" x="238.73" y="11.97" width="8.27" height=".8"></rect><rect class="cls-4" x="178.44" y="18.33" width="8.27" height=".8"></rect><path class="cls-4" d="M87.67,13.83c-.57-.6-1.24-1.07-2.02-1.41-.78-.34-1.64-.51-2.57-.51s-1.8.17-2.58.51c-.79.34-1.47.81-2.04,1.41-.57.6-1.02,1.32-1.33,2.15-.31.83-.47,1.75-.47,2.75s.16,1.92.47,2.76c.31.84.76,1.56,1.33,2.16.57.6,1.25,1.07,2.04,1.41.79.34,1.65.51,2.58.51s1.79-.17,2.57-.51c.78-.34,1.46-.81,2.02-1.41.57-.6,1.01-1.32,1.32-2.16s.47-1.76.47-2.76-.16-1.92-.47-2.75-.75-1.55-1.32-2.15ZM88.16,21.16c-.27.74-.65,1.37-1.13,1.9-.48.53-1.06.94-1.73,1.24-.67.3-1.41.45-2.21.45s-1.54-.15-2.21-.45c-.67-.3-1.26-.71-1.75-1.24-.49-.53-.88-1.16-1.15-1.9-.27-.74-.41-1.55-.41-2.43s.14-1.69.41-2.42c.27-.73.66-1.36,1.15-1.89.49-.53,1.08-.94,1.75-1.24s1.41-.45,2.21-.45,1.54.15,2.21.45c.67.3,1.25.71,1.73,1.24.48.53.86,1.16,1.13,1.89.27.73.41,1.54.41,2.42s-.14,1.69-.41,2.43Z"></path><path class="cls-4" d="M203.27,19.35c.9-.19,1.63-.56,2.17-1.14.6-.65.9-1.47.9-2.47,0-.57-.09-1.08-.28-1.53-.19-.45-.46-.83-.81-1.14-.35-.31-.77-.55-1.26-.71-.49-.16-1.03-.24-1.63-.24h-5.21v13.28h.88v-5.95h4.31l3.2,5.95h1.04l-3.31-6.03ZM202.29,18.63h-4.27v-5.75h4.27c1.01,0,1.79.26,2.32.77.53.51.8,1.21.8,2.09s-.27,1.55-.8,2.08c-.53.53-1.31.8-2.32.8Z"></path><rect class="cls-4" x="238.73" y="24.47" width="8.27" height=".8"></rect><path class="cls-4" d="M275.6,19.64h4.85c-.04.64-.18,1.27-.41,1.87-.24.6-.57,1.14-1,1.61-.43.47-.96.85-1.58,1.14-.62.29-1.34.43-2.14.43s-1.53-.15-2.21-.45c-.68-.3-1.27-.72-1.76-1.26-.5-.54-.89-1.18-1.17-1.92-.28-.75-.42-1.55-.42-2.43s.14-1.68.41-2.42c.27-.74.66-1.38,1.15-1.91.49-.54,1.07-.96,1.74-1.27.67-.31,1.4-.46,2.18-.46.95,0,1.83.22,2.64.66.81.44,1.51,1.11,2.11,1.99l.66-.54c-.62-.93-1.39-1.64-2.3-2.15-.92-.51-1.95-.77-3.09-.77-.91,0-1.76.17-2.55.52-.79.35-1.46.83-2.03,1.45-.57.62-1.02,1.35-1.34,2.18-.32.84-.48,1.75-.48,2.73s.16,1.89.49,2.72.78,1.56,1.36,2.17c.58.62,1.26,1.1,2.04,1.45.79.35,1.63.52,2.55.52s1.76-.17,2.52-.5c.75-.34,1.39-.79,1.92-1.37s.94-1.25,1.23-2.03c.29-.78.43-1.61.43-2.5v-.26h-5.8v.79Z"></path><rect class="cls-4" x="77.02" y="39.67" width=".48" height="5.02"></rect><path class="cls-4" d="M77.55,37.69s-.08-.06-.13-.09-.11-.03-.17-.03-.12.01-.17.03c-.05.02-.09.05-.13.09s-.06.08-.09.13-.03.1-.03.16.01.11.03.16.05.09.09.12.08.06.13.09c.05.02.11.03.17.03s.12-.01.17-.03c.05-.02.09-.05.13-.09s.06-.08.09-.12.03-.1.03-.16-.01-.11-.03-.16-.05-.09-.09-.13Z"></path><path class="cls-4" d="M88.27,40.09c-.18-.17-.39-.3-.63-.39-.24-.09-.51-.13-.81-.13-.16,0-.33.02-.5.06-.17.04-.34.1-.5.18-.16.08-.31.19-.46.32-.14.13-.27.29-.39.49v-.94h-.48v5.02h.48v-2.83c0-.26.05-.5.14-.72.1-.22.23-.42.39-.59.16-.17.34-.3.55-.4.21-.1.42-.14.65-.14.53,0,.93.15,1.21.44.28.29.42.75.42,1.36v2.88h.48v-3.07c0-.34-.05-.63-.14-.89-.1-.26-.23-.47-.41-.64Z"></path><path class="cls-4" d="M99.38,40.09c-.18-.17-.39-.3-.63-.39-.24-.09-.51-.13-.81-.13-.16,0-.33.02-.5.06-.17.04-.34.1-.5.18-.16.08-.31.19-.46.32-.14.13-.27.29-.39.49v-.94h-.48v5.02h.48v-2.83c0-.26.05-.5.14-.72.1-.22.23-.42.39-.59.16-.17.34-.3.55-.4.21-.1.42-.14.65-.14.53,0,.93.15,1.21.44.28.29.42.75.42,1.36v2.88h.48v-3.07c0-.34-.05-.63-.14-.89-.1-.26-.23-.47-.41-.64Z"></path><path class="cls-4" d="M110.71,40.33c-.22-.24-.49-.42-.8-.56-.31-.14-.64-.2-1.01-.2s-.69.07-1,.2c-.31.14-.58.32-.8.56-.23.24-.4.51-.53.83-.13.32-.19.66-.19,1.03s.06.71.19,1.02c.13.32.31.59.53.83.22.24.49.42.8.56.31.14.64.2,1,.2s.7-.07,1.01-.2c.31-.14.57-.32.8-.56.23-.24.4-.51.52-.83.12-.32.19-.66.19-1.02s-.06-.72-.19-1.03c-.12-.32-.3-.59-.52-.83ZM110.79,43.05c-.1.26-.25.49-.43.69-.18.2-.4.35-.65.46-.25.11-.52.17-.81.17s-.56-.06-.81-.17c-.25-.11-.47-.26-.65-.46-.18-.2-.32-.43-.43-.69s-.16-.55-.16-.86.05-.59.16-.86.25-.5.43-.7c.18-.2.4-.35.65-.46.25-.11.52-.17.81-.17s.56.06.81.17c.25.11.47.26.65.46s.32.43.43.7.16.56.16.86-.05.59-.16.86Z"></path><polygon class="cls-4" points="119.5 44.12 117.75 39.67 117.24 39.67 119.24 44.7 119.77 44.7 121.78 39.67 121.26 39.67 119.5 44.12"></polygon><path class="cls-4" d="M131.14,40.11c-.18-.17-.4-.31-.66-.4-.26-.09-.55-.14-.87-.14-.18,0-.35.02-.53.06-.18.04-.34.1-.5.18s-.31.18-.45.29-.27.25-.38.39l.3.3c.2-.25.44-.44.72-.58.28-.14.57-.21.85-.21.24,0,.45.04.65.12s.37.19.51.33c.14.14.25.31.33.51.08.2.12.42.12.65v.58c-.21-.15-.45-.26-.72-.34s-.58-.12-.92-.12c-.29,0-.55.04-.79.12s-.45.19-.63.33c-.18.14-.32.31-.42.5-.1.19-.15.4-.15.63s.04.42.13.6.21.34.38.47c.16.13.35.23.56.31.21.07.45.11.71.11.42,0,.79-.09,1.11-.28.32-.19.57-.46.75-.81v.99h.45v-3.15c0-.3-.05-.57-.14-.81-.1-.24-.24-.45-.42-.63ZM131.08,43.34c-.1.21-.24.39-.4.55-.16.16-.35.28-.57.37s-.44.13-.68.13c-.39,0-.7-.09-.95-.28-.25-.19-.38-.45-.38-.79,0-.36.14-.64.42-.85.28-.21.65-.32,1.12-.32.31,0,.61.05.89.14s.51.22.71.37c0,.24-.05.47-.16.67Z"></path><path class="cls-4" d="M140.63,44.3c-.14.04-.28.05-.41.05-.27,0-.5-.09-.67-.27-.18-.18-.27-.49-.27-.92v-3.08h1.71v-.41h-1.71v-1.62h-.48v1.62h-.92v.41h.92v3.24c0,.25.03.47.1.65s.16.34.28.46c.12.12.27.21.44.27s.36.09.57.09c.18,0,.35-.02.52-.06.17-.04.3-.09.4-.15l-.06-.45c-.14.07-.27.12-.42.16Z"></path><rect class="cls-4" x="147.56" y="39.67" width=".48" height="5.02"></rect><path class="cls-4" d="M148.1,37.69s-.08-.06-.13-.09-.11-.03-.17-.03-.12.01-.17.03c-.05.02-.09.05-.13.09s-.06.08-.09.13-.03.1-.03.16.01.11.03.16.05.09.09.12.08.06.13.09c.05.02.11.03.17.03s.12-.01.17-.03c.05-.02.09-.05.13-.09s.06-.08.09-.12.03-.1.03-.16-.01-.11-.03-.16-.05-.09-.09-.13Z"></path><polygon class="cls-4" points="156.74 44.12 154.99 39.67 154.48 39.67 156.48 44.7 157.02 44.7 159.02 39.67 158.5 39.67 156.74 44.12"></polygon><path class="cls-4" d="M168.94,40.26c-.2-.21-.44-.38-.72-.5-.28-.12-.6-.19-.96-.19s-.66.07-.96.2c-.3.13-.56.32-.78.55-.22.24-.39.51-.52.83-.12.32-.19.67-.19,1.04s.06.72.18,1.04c.12.32.29.6.51.83s.49.41.79.55c.31.13.65.2,1.02.2.2,0,.4-.02.59-.06.2-.04.38-.11.56-.19.17-.09.34-.19.5-.32.16-.13.29-.28.41-.45l-.35-.28c-.21.27-.46.48-.75.64-.29.15-.61.23-.95.23-.29,0-.56-.06-.81-.17-.25-.11-.47-.27-.65-.47-.18-.2-.32-.43-.42-.7-.09-.23-.13-.49-.14-.75h4.22c.01-.06.02-.12.02-.19v-.19c0-.32-.05-.62-.16-.9-.1-.28-.25-.53-.45-.74ZM165.32,41.87c.02-.2.06-.39.13-.57.1-.26.24-.49.42-.68.18-.19.39-.34.63-.45.24-.11.51-.16.79-.16.25,0,.48.05.7.14.21.09.4.22.56.39.16.16.29.36.38.59.09.23.14.48.15.75h-3.76Z"></path><rect class="cls-4" x="184.39" y="35.51" width=".46" height="11.28"></rect><path class="cls-4" d="M199.23,40.08c-.17-.17-.38-.3-.61-.39-.24-.09-.5-.13-.79-.13-.37,0-.73.1-1.09.29-.35.2-.62.52-.81.96-.13-.41-.35-.72-.67-.93-.32-.21-.7-.32-1.15-.32-.16,0-.32.02-.48.06-.16.04-.32.1-.48.18-.16.08-.31.19-.44.32-.14.13-.26.29-.37.49v-.94h-.48v5.02h.48v-2.83c0-.26.05-.5.14-.73.09-.23.22-.42.37-.59.15-.16.33-.29.54-.39.2-.1.42-.14.64-.14.51,0,.9.15,1.16.44.26.29.39.75.39,1.36v2.88h.49v-2.82c0-.26.05-.51.14-.73.09-.22.22-.42.37-.59.15-.17.33-.3.54-.4.2-.1.42-.14.64-.14.51,0,.9.15,1.16.44.26.29.39.75.39,1.36v2.88h.48v-3.07c0-.34-.05-.64-.14-.9s-.22-.47-.4-.64Z"></path><path class="cls-4" d="M209.77,40.11c-.18-.17-.4-.31-.66-.4-.26-.09-.55-.14-.87-.14-.18,0-.35.02-.53.06-.18.04-.34.1-.5.18s-.31.18-.45.29-.27.25-.38.39l.3.3c.2-.25.44-.44.72-.58.28-.14.57-.21.85-.21.24,0,.45.04.65.12s.37.19.51.33c.14.14.25.31.33.51.08.2.12.42.12.65v.58c-.21-.15-.45-.26-.72-.34s-.58-.12-.92-.12c-.29,0-.55.04-.79.12s-.45.19-.63.33c-.18.14-.32.31-.42.5-.1.19-.15.4-.15.63s.04.42.13.6.21.34.38.47c.16.13.35.23.56.31.21.07.45.11.71.11.42,0,.79-.09,1.11-.28.32-.19.57-.46.75-.81v.99h.45v-3.15c0-.3-.05-.57-.14-.81-.1-.24-.24-.45-.42-.63ZM209.7,43.34c-.1.21-.24.39-.4.55-.16.16-.35.28-.57.37s-.44.13-.68.13c-.39,0-.7-.09-.95-.28-.25-.19-.38-.45-.38-.79,0-.36.14-.64.42-.85.28-.21.65-.32,1.12-.32.31,0,.61.05.89.14s.51.22.71.37c0,.24-.05.47-.16.67Z"></path><path class="cls-4" d="M219.01,39.57c-.27,0-.55.08-.82.24-.28.16-.48.38-.6.65v-.78h-.48v5.02h.48v-2.85c0-.3.04-.56.11-.79s.17-.42.29-.57c.12-.15.27-.27.45-.35.18-.08.36-.12.56-.12.14,0,.26,0,.36.03.1.02.18.04.26.08l.04-.45c-.06-.03-.15-.05-.27-.08s-.24-.03-.39-.03Z"></path><polygon class="cls-4" points="229.75 39.67 229.16 39.67 226.45 42.62 226.45 37.33 225.96 37.33 225.96 44.7 226.45 44.7 226.45 43.23 227.53 42.08 229.27 44.7 229.86 44.7 227.85 41.76 229.75 39.67"></polygon><path class="cls-4" d="M239.54,40.26c-.2-.21-.44-.38-.72-.5-.28-.12-.6-.19-.96-.19s-.66.07-.96.2c-.3.13-.56.32-.78.55-.22.24-.39.51-.52.83-.12.32-.19.67-.19,1.04s.06.72.18,1.04c.12.32.29.6.51.83s.49.41.79.55c.31.13.65.2,1.02.2.2,0,.4-.02.59-.06.2-.04.38-.11.56-.19.17-.09.34-.19.5-.32.16-.13.29-.28.41-.45l-.35-.28c-.21.27-.46.48-.75.64-.29.15-.61.23-.95.23-.29,0-.56-.06-.81-.17-.25-.11-.47-.27-.65-.47-.18-.2-.32-.43-.42-.7-.09-.23-.13-.49-.14-.75h4.22c.01-.06.02-.12.02-.19v-.19c0-.32-.05-.62-.16-.9-.1-.28-.25-.53-.45-.74ZM235.91,41.87c.02-.2.06-.39.13-.57.1-.26.24-.49.42-.68.18-.19.39-.34.63-.45.24-.11.51-.16.79-.16.25,0,.48.05.7.14.21.09.4.22.56.39.16.16.29.36.38.59.09.23.14.48.15.75h-3.76Z"></path><path class="cls-4" d="M248.78,44.3c-.14.04-.28.05-.41.05-.27,0-.5-.09-.67-.27-.18-.18-.27-.49-.27-.92v-3.08h1.71v-.41h-1.71v-1.62h-.48v1.62h-.92v.41h.92v3.24c0,.25.03.47.1.65s.16.34.28.46c.12.12.27.21.44.27s.36.09.57.09c.18,0,.35-.02.52-.06.17-.04.3-.09.4-.15l-.06-.45c-.14.07-.27.12-.42.16Z"></path><path class="cls-4" d="M256.25,37.69s-.08-.06-.13-.09-.11-.03-.17-.03-.12.01-.17.03c-.05.02-.09.05-.13.09s-.06.08-.09.13-.03.1-.03.16.01.11.03.16.05.09.09.12.08.06.13.09c.05.02.11.03.17.03s.12-.01.17-.03c.05-.02.09-.05.13-.09s.06-.08.09-.12.03-.1.03-.16-.01-.11-.03-.16-.05-.09-.09-.13Z"></path><rect class="cls-4" x="255.71" y="39.67" width=".48" height="5.02"></rect><path class="cls-4" d="M266.97,40.09c-.18-.17-.39-.3-.63-.39-.24-.09-.51-.13-.81-.13-.16,0-.33.02-.5.06-.17.04-.34.1-.5.18-.16.08-.31.19-.46.32-.14.13-.27.29-.39.49v-.94h-.48v5.02h.48v-2.83c0-.26.05-.5.14-.72.1-.22.23-.42.39-.59.16-.17.34-.3.55-.4.21-.1.42-.14.65-.14.53,0,.93.15,1.21.44.28.29.42.75.42,1.36v2.88h.48v-3.07c0-.34-.05-.63-.14-.89-.1-.26-.23-.47-.41-.64Z"></path><path class="cls-4" d="M278.49,40.77c-.21-.37-.5-.66-.87-.88-.36-.21-.78-.32-1.23-.32-.34,0-.66.07-.95.2-.29.13-.55.32-.76.55-.21.24-.38.51-.5.83-.12.32-.18.66-.18,1.03s.06.72.18,1.03c.12.32.29.59.5.83.21.24.47.42.76.56.29.14.61.2.95.2.46,0,.87-.11,1.24-.32.37-.21.66-.51.86-.9v.9c0,.31-.05.58-.15.83-.1.25-.24.46-.43.63-.19.17-.42.3-.68.4s-.56.14-.89.14-.64-.06-.93-.18c-.29-.12-.56-.31-.81-.57l-.3.33c.13.14.27.26.42.36.15.1.32.19.49.26.17.07.35.12.54.16.19.04.39.05.59.05.41,0,.77-.06,1.1-.18.32-.12.6-.29.82-.51s.4-.49.52-.81c.12-.32.18-.67.18-1.05v-4.66h-.47v1.09ZM278.35,43.04c-.1.27-.25.5-.43.7-.19.2-.41.35-.66.47-.25.11-.53.17-.83.17-.28,0-.54-.06-.78-.17-.24-.11-.45-.26-.62-.46-.18-.2-.31-.43-.41-.7-.1-.27-.15-.56-.15-.87s.05-.6.15-.87c.1-.26.24-.49.41-.69.17-.19.38-.34.62-.46.24-.11.5-.17.78-.17.3,0,.58.06.83.17.25.11.47.26.66.46s.33.43.43.69.16.55.16.86-.05.59-.16.86Z"></path><rect class="cls-4" x="294.11" y="35.51" width=".46" height="11.28"></rect><path class="cls-4" d="M312.61,42.45c-.15-.11-.33-.2-.53-.28-.2-.07-.42-.14-.66-.21-.22-.06-.42-.11-.59-.17-.18-.06-.32-.12-.44-.2-.12-.08-.21-.17-.27-.28s-.09-.24-.09-.41c0-.28.12-.5.35-.66.24-.16.53-.24.88-.24.29,0,.55.06.78.18.22.12.41.27.56.46l.32-.3c-.16-.21-.39-.4-.68-.55s-.62-.22-.98-.22c-.23,0-.45.03-.65.1-.21.06-.39.16-.55.27-.16.12-.28.26-.38.43-.09.17-.14.36-.14.56,0,.24.04.43.13.59s.21.29.36.4c.15.11.34.2.55.27.21.07.44.14.68.2.42.11.75.23.99.36s.36.36.36.66-.12.53-.37.7-.56.25-.95.25c-.34,0-.64-.08-.91-.23-.27-.15-.49-.36-.65-.62l-.34.31c.19.31.45.55.78.72.34.17.71.26,1.12.26.24,0,.47-.03.69-.1s.41-.16.57-.28.29-.27.39-.43c.1-.17.14-.36.14-.57,0-.23-.04-.42-.13-.57-.09-.15-.2-.29-.35-.4Z"></path><path class="cls-4" d="M323.64,40.33c-.22-.24-.49-.42-.8-.56-.31-.14-.64-.2-1.01-.2s-.69.07-1,.2c-.31.14-.58.32-.8.56-.22.24-.4.51-.53.83-.13.32-.19.66-.19,1.03s.06.71.19,1.02c.13.32.31.59.53.83.22.24.49.42.8.56.31.14.64.2,1,.2s.7-.07,1.01-.2c.31-.14.57-.32.8-.56.22-.24.4-.51.52-.83.12-.32.19-.66.19-1.02s-.06-.72-.19-1.03c-.12-.32-.3-.59-.52-.83ZM323.72,43.05c-.1.26-.25.49-.43.69-.18.2-.4.35-.65.46-.25.11-.52.17-.81.17s-.56-.06-.81-.17c-.25-.11-.47-.26-.65-.46-.18-.2-.33-.43-.43-.69s-.16-.55-.16-.86.05-.59.16-.86.25-.5.43-.7c.18-.2.4-.35.65-.46.25-.11.52-.17.81-.17s.56.06.81.17c.25.11.47.26.65.46.18.2.33.43.43.7s.16.56.16.86-.05.59-.16.86Z"></path><rect class="cls-4" x="330.85" y="37.33" width=".48" height="7.37"></rect><path class="cls-4" d="M341.96,42.5c0,.26-.05.5-.14.73s-.22.42-.39.59c-.16.16-.34.29-.55.39-.21.1-.42.14-.65.14-.54,0-.94-.15-1.22-.44-.27-.29-.41-.75-.41-1.36v-2.88h-.48v3.07c0,.34.05.63.14.89.1.26.23.47.41.64s.39.3.64.39c.25.09.52.13.82.13.16,0,.33-.02.5-.06.17-.04.33-.1.49-.18.16-.08.31-.19.46-.32.15-.13.27-.29.38-.49v.94h.47v-5.02h-.47v2.83Z"></path><path class="cls-4" d="M351.49,44.3c-.14.04-.28.05-.41.05-.27,0-.5-.09-.67-.27-.18-.18-.27-.49-.27-.92v-3.08h1.71v-.41h-1.71v-1.62h-.48v1.62h-.92v.41h.92v3.24c0,.25.03.47.1.65.07.19.16.34.28.46.12.12.27.21.44.27.17.06.36.09.57.09.18,0,.35-.02.52-.06.17-.04.3-.09.4-.15l-.06-.45c-.14.07-.28.12-.42.16Z"></path><rect class="cls-4" x="358.42" y="39.67" width=".48" height="5.02"></rect><path class="cls-4" d="M358.96,37.69s-.08-.06-.13-.09c-.05-.02-.11-.03-.17-.03s-.12.01-.17.03-.09.05-.13.09c-.04.04-.06.08-.09.13-.02.05-.03.1-.03.16s.01.11.03.16c.02.05.05.09.09.12.04.04.08.06.13.09.05.02.11.03.17.03s.12-.01.17-.03c.05-.02.09-.05.13-.09.04-.04.06-.08.09-.12s.03-.1.03-.16-.01-.11-.03-.16-.05-.09-.09-.13Z"></path><path class="cls-4" d="M369.91,40.33c-.22-.24-.49-.42-.8-.56-.31-.14-.64-.2-1.01-.2s-.69.07-1,.2c-.31.14-.58.32-.8.56-.22.24-.4.51-.53.83-.13.32-.19.66-.19,1.03s.06.71.19,1.02c.13.32.31.59.53.83.22.24.49.42.8.56.31.14.64.2,1,.2s.7-.07,1.01-.2c.31-.14.57-.32.8-.56.22-.24.4-.51.52-.83.12-.32.19-.66.19-1.02s-.06-.72-.19-1.03c-.12-.32-.3-.59-.52-.83ZM369.99,43.05c-.1.26-.25.49-.43.69-.18.2-.4.35-.65.46-.25.11-.52.17-.81.17s-.56-.06-.81-.17c-.25-.11-.47-.26-.65-.46-.18-.2-.33-.43-.43-.69s-.16-.55-.16-.86.05-.59.16-.86.25-.5.43-.7c.18-.2.4-.35.65-.46.25-.11.52-.17.81-.17s.56.06.81.17c.25.11.47.26.65.46.18.2.33.43.43.7s.16.56.16.86-.05.59-.16.86Z"></path><path class="cls-4" d="M380.89,40.09c-.18-.17-.39-.3-.63-.39-.24-.09-.51-.13-.81-.13-.16,0-.33.02-.5.06-.17.04-.34.1-.5.18-.16.08-.31.19-.46.32-.14.13-.27.29-.39.49v-.94h-.48v5.02h.48v-2.83c0-.26.05-.5.14-.72.1-.22.22-.42.39-.59.16-.17.34-.3.55-.4.21-.1.42-.14.65-.14.53,0,.93.15,1.21.44.28.29.42.75.42,1.36v2.88h.48v-3.07c0-.34-.05-.63-.14-.89-.1-.26-.23-.47-.41-.64Z"></path><path class="cls-4" d="M391.09,42.45c-.15-.11-.33-.2-.53-.28-.2-.07-.42-.14-.66-.21-.22-.06-.42-.11-.59-.17-.18-.06-.32-.12-.44-.2-.12-.08-.21-.17-.27-.28s-.09-.24-.09-.41c0-.28.12-.5.35-.66.24-.16.53-.24.88-.24.29,0,.55.06.78.18.22.12.41.27.56.46l.32-.3c-.16-.21-.39-.4-.68-.55s-.62-.22-.98-.22c-.23,0-.45.03-.65.1-.21.06-.39.16-.55.27-.16.12-.28.26-.38.43-.09.17-.14.36-.14.56,0,.24.04.43.13.59s.21.29.36.4c.15.11.34.2.55.27.21.07.44.14.68.2.42.11.75.23.99.36s.36.36.36.66-.12.53-.37.7c-.25.16-.56.25-.95.25-.34,0-.64-.08-.91-.23-.27-.15-.49-.36-.65-.62l-.34.31c.19.31.45.55.78.72.34.17.71.26,1.12.26.24,0,.47-.03.69-.1s.41-.16.57-.28.29-.27.39-.43c.1-.17.14-.36.14-.57,0-.23-.04-.42-.13-.57-.09-.15-.2-.29-.35-.4Z"></path></g></svg>